<svg width="48" height="48" viewBox="0 0 48 48" fill="none" xmlns="http://www.w3.org/2000/svg">
<path d="M38.1181 6.10332C41.0004 6.10363 43.4999 9.00672 43.4999 12.8104C43.4999 16.6139 41.0003 19.5171 38.1181 19.5174C35.2357 19.5174 32.7353 16.6141 32.7353 12.8104C32.7353 9.00652 35.2356 6.10332 38.1181 6.10332Z" stroke="black"/>
<path d="M4 43.0793V41.5578L23.7924 24.061L25.0294 26.3432L4 43.0793Z" fill="url(#paint0_linear_9_90)"/>
<path d="M25.0294 26.3432L34.8368 18.6697L33.8554 17.1344L32.7889 15.693L23.7924 24.061L25.0294 26.3432Z" fill="black"/>
<path d="M38.1181 45.4621C41.0004 45.4617 43.4999 42.5587 43.4999 38.755C43.4999 34.9514 41.0003 32.0483 38.1181 32.048C35.2357 32.048 32.7353 34.9512 32.7353 38.755C32.7353 42.5589 35.2356 45.4621 38.1181 45.4621Z" stroke="#A60A0A"/>
<path d="M4 8.48609V10.0075L23.7924 27.5043L25.0294 25.2221L4 8.48609Z" fill="url(#paint1_linear_9_90)"/>
<path d="M25.0294 25.2221L34.7682 33.0303C33.3737 33.9239 32.7167 35.7394 32.7889 35.8724L23.7924 27.5043L25.0294 25.2221Z" fill="#A60A0A"/>
<path d="M42.9425 4C42.9425 5.3578 42.9412 7.04471 41.0588 7.04471L43.4118 9.92747C43.586 8.64686 44.042 5.98681 43.4118 4.17407C43.3326 3.9465 43.0475 4.19292 42.9425 4Z" fill="black"/>
<path d="M24 25.7827C24 26.1807 23.7366 26.5034 23.4118 26.5034C23.0869 26.5034 22.8235 26.1807 22.8235 25.7827C22.8235 25.3847 23.0869 25.062 23.4118 25.062C23.7366 25.062 24 25.3847 24 25.7827Z" fill="url(#paint2_linear_9_90)"/>
<defs>
<linearGradient id="paint0_linear_9_90" x1="19.2941" y1="15.693" x2="19.2941" y2="43.0793" gradientUnits="userSpaceOnUse">
<stop stop-color="#E5E5E5"/>
<stop offset="0.5" stop-color="#B3B3B3"/>
<stop offset="1" stop-color="#4D4D4D"/>
</linearGradient>
<linearGradient id="paint1_linear_9_90" x1="19.2941" y1="8.48609" x2="19.2941" y2="35.8724" gradientUnits="userSpaceOnUse">
<stop stop-color="#E5E5E5"/>
<stop offset="0.5" stop-color="#B3B3B3"/>
<stop offset="1" stop-color="#4D4D4D"/>
</linearGradient>
<linearGradient id="paint2_linear_9_90" x1="23.4118" y1="26.5034" x2="23.4118" y2="25.062" gradientUnits="userSpaceOnUse">
<stop stop-color="#D9D9D9"/>
<stop offset="1" stop-color="#737373"/>
</linearGradient>
</defs>
</svg>
