<svg width="48" height="48" viewBox="0 0 48 48" fill="none" xmlns="http://www.w3.org/2000/svg">
<path d="M34 4H14C12.8954 4 12 4.89543 12 6V30.9296C12 31.5983 12.3342 32.2228 12.8906 32.5937L22.8906 39.2604C23.5624 39.7083 24.4376 39.7083 25.1094 39.2604L35.1094 32.5937C35.6658 32.2228 36 31.5983 36 30.9296V6C36 4.89543 35.1046 4 34 4Z" fill="#10BE25"/>
<path d="M19.8336 19.48V19.2H21.7736V19.48L21.2236 19.55C21.1169 19.5633 21.0536 19.5933 21.0336 19.64C21.0136 19.68 21.0036 19.8133 21.0036 20.04V26H20.4536L16.7836 20.07V25.16C16.7836 25.3867 16.7936 25.5233 16.8136 25.57C16.8336 25.61 16.8969 25.6367 17.0036 25.65L17.5536 25.72V26H15.6136V25.72L16.1636 25.65C16.2703 25.6367 16.3336 25.61 16.3536 25.57C16.3736 25.5233 16.3836 25.3867 16.3836 25.16V20.04C16.3836 19.8133 16.3736 19.68 16.3536 19.64C16.3336 19.5933 16.2703 19.5633 16.1636 19.55L15.6136 19.48V19.2H17.6236L20.6036 23.99V20.04C20.6036 19.8133 20.5936 19.68 20.5736 19.64C20.5536 19.5933 20.4903 19.5633 20.3836 19.55L19.8336 19.48ZM27.1488 24.28H27.4288V26H22.4788V25.72L23.0288 25.65C23.1355 25.6367 23.1988 25.61 23.2188 25.57C23.2388 25.5233 23.2488 25.3867 23.2488 25.16V20.04C23.2488 19.8133 23.2388 19.68 23.2188 19.64C23.1988 19.5933 23.1355 19.5633 23.0288 19.55L22.4788 19.48V19.2H27.3288V20.92H27.0488L26.7288 19.81C26.7088 19.73 26.6855 19.6733 26.6588 19.64C26.6388 19.6 26.5955 19.5767 26.5288 19.57C26.4622 19.5567 26.3488 19.55 26.1888 19.55H24.4488V22.39H25.5888C25.7488 22.39 25.8622 22.3867 25.9288 22.38C25.9955 22.3667 26.0388 22.3433 26.0588 22.31C26.0855 22.27 26.1088 22.21 26.1288 22.13L26.3488 21.32H26.6288V23.81H26.3488L26.1288 23C26.1088 22.92 26.0855 22.8633 26.0588 22.83C26.0388 22.79 25.9955 22.7667 25.9288 22.76C25.8622 22.7467 25.7488 22.74 25.5888 22.74H24.4488V25.65H26.2888C26.4488 25.65 26.5622 25.6467 26.6288 25.64C26.6955 25.6267 26.7388 25.6033 26.7588 25.57C26.7855 25.53 26.8088 25.47 26.8288 25.39L27.1488 24.28ZM28.1942 19.2H33.6942V20.92H33.4142L33.0942 19.81C33.0742 19.7233 33.0509 19.6633 33.0242 19.63C33.0042 19.59 32.9609 19.5667 32.8942 19.56C32.8276 19.5533 32.7142 19.55 32.5542 19.55H31.5442V25.16C31.5442 25.3867 31.5542 25.5233 31.5742 25.57C31.5942 25.61 31.6576 25.6367 31.7642 25.65L32.3142 25.72V26H29.5742V25.72L30.1242 25.65C30.2309 25.6367 30.2942 25.61 30.3142 25.57C30.3342 25.5233 30.3442 25.3867 30.3442 25.16V19.55H29.3342C29.1809 19.55 29.0676 19.5533 28.9942 19.56C28.9276 19.5667 28.8842 19.59 28.8642 19.63C28.8442 19.6633 28.8209 19.7233 28.7942 19.81L28.4742 20.92H28.1942V19.2Z" fill="black"/>
<line x1="23.9227" y1="39.2904" x2="23.9227" y2="44" stroke="black"/>
</svg>
