<svg width="48" height="48" viewBox="0 0 48 48" fill="none" xmlns="http://www.w3.org/2000/svg">
<path d="M12.5851 43.4C11.7585 43.4 11.0785 43.1467 10.5451 42.64C10.0385 42.1067 9.78514 41.4133 9.78514 40.56C9.78514 39.7067 10.0385 39.0267 10.5451 38.52C11.0785 38.0133 11.7585 37.76 12.5851 37.76C13.4118 37.76 14.0918 38.0133 14.6251 38.52C15.1585 39.0267 15.4251 39.7067 15.4251 40.56C15.4251 41.4133 15.1585 42.1067 14.6251 42.64C14.0918 43.1467 13.4118 43.4 12.5851 43.4ZM28.7005 42C30.3005 42 31.6205 41.6267 32.6605 40.88C33.7271 40.1067 34.2605 38.9067 34.2605 37.28C34.2605 36.08 33.9005 35.08 33.1805 34.28C32.4871 33.48 31.2338 32.8133 29.4205 32.28L25.7005 31.16C23.8338 30.6 22.3938 29.64 21.3805 28.28C20.3938 26.8933 19.9005 25.1733 19.9005 23.12C19.9005 21.76 20.2071 20.4933 20.8205 19.32C21.4605 18.1467 22.4205 17.2 23.7005 16.48C25.0071 15.76 26.6471 15.4 28.6205 15.4C30.7805 15.4 32.5271 15.8 33.8605 16.6C35.1938 17.3733 36.1271 18.3867 36.6605 19.64C37.1938 20.8933 37.3271 22.24 37.0605 23.68L32.4605 24.52C32.8871 22.04 32.7005 20.1333 31.9005 18.8C31.1271 17.4667 29.8605 16.8 28.1005 16.8C26.7405 16.8 25.6471 17.2 24.8205 18C24.0205 18.8 23.6205 19.9467 23.6205 21.44C23.6205 22.6667 23.9671 23.7467 24.6605 24.68C25.3805 25.6133 26.5538 26.3333 28.1805 26.84L31.9005 27.96C33.9271 28.5467 35.4471 29.44 36.4605 30.64C37.4738 31.8133 37.9805 33.4533 37.9805 35.56C37.9805 37.0533 37.6338 38.4 36.9405 39.6C36.2738 40.7733 35.2471 41.7067 33.8605 42.4C32.5005 43.0667 30.7938 43.4 28.7405 43.4C27.2471 43.4 25.8338 43.1867 24.5005 42.76C23.1671 42.3067 22.0471 41.5733 21.1405 40.56C20.2605 39.5467 19.7005 38.1733 19.4605 36.44L22.1405 35.48C22.2738 37.1867 22.6471 38.52 23.2605 39.48C23.9005 40.4133 24.6871 41.0667 25.6205 41.44C26.5805 41.8133 27.6071 42 28.7005 42Z" fill="#235FDF"/>
</svg>
