<svg width="48" height="48" viewBox="0 0 48 48" fill="none" xmlns="http://www.w3.org/2000/svg">
<circle cx="19" cy="29" r="10" stroke="#EE6035" stroke-width="10"/>
<path d="M35.3809 10.2051L41.1494 7.64941L43.75 12.1523L38.7666 15.9316L43.8643 19.6494L41.2637 24.1523L35.3945 21.6826L34.5996 28H29.4004L28.7295 21.7266L22.9648 24.1523L20.3652 19.6494L25.4619 15.9316L20.4795 12.1523L23.0791 7.64941L28.7412 10.1582L29.4004 4H34.5996L35.3809 10.2051ZM32.1152 13.5C30.7345 13.5 29.6152 14.6193 29.6152 16C29.6152 17.3807 30.7345 18.5 32.1152 18.5C33.4957 18.4997 34.6152 17.3805 34.6152 16C34.6152 14.6195 33.4957 13.5003 32.1152 13.5Z" fill="#235FDF"/>
</svg>
